<?xml version="1.0" encoding="UTF-8"?>
<!DOCTYPE svg PUBLIC "-//W3C//DTD SVG 1.1//EN" "http://www.w3.org/Graphics/SVG/1.1/DTD/svg11.dtd">
<!-- Creator: CorelDRAW 2020 (64-Bit) -->
<svg xmlns="http://www.w3.org/2000/svg" xml:space="preserve" width="200mm" height="200mm" version="1.1" style="shape-rendering:geometricPrecision; text-rendering:geometricPrecision; image-rendering:optimizeQuality; fill-rule:evenodd; clip-rule:evenodd"
viewBox="0 0 20000 20000"
 xmlns:xlink="http://www.w3.org/1999/xlink"
 xmlns:xodm="http://www.corel.com/coreldraw/odm/2003">
 <defs>
  <style type="text/css">
   <![CDATA[
    .fil0 {fill:none}
    .fil1 {fill:white;fill-rule:nonzero}
   ]]>
  </style>
 </defs>
 <g id="Layer_x0020_1">
  <metadata id="CorelCorpID_0Corel-Layer"/>
  <path class="fil0" d="M9992.4 7.6c5522.84,0 10000,4477.15 10000,10000 0,5522.85 -4477.16,10000 -10000,10000 -5522.84,0 -10000,-4477.15 -10000,-10000 0,-5522.85 4477.16,-10000 10000,-10000z"/>
 </g>
 <g id="Layer_x0020_1_0">
  <metadata id="CorelCorpID_1Corel-Layer"/>
  <g id="_3128421931424">
   <polygon class="fil1" points="7093.34,15563.96 7093.34,15563.96 3840.86,15563.96 4762.16,8616.11 8014.4,8616.11 "/>
   <path class="fil1" d="M15222.82 15563.96l-3252.09 0 439.77 -3976.17 481.36 -4356.3 -7208.42 0 -921.28 -2780.25 8129.7 0c1016.41,0 1778.89,136.06 2286.72,407.57 428.3,227.49 708.6,570.87 845.12,1031.29 80.78,274.47 120.21,720.81 120.21,1340.02l-921.09 8333.84z"/>
  </g>
 </g>
</svg>
