<?xml version="1.0" encoding="UTF-8"?>
<!DOCTYPE svg PUBLIC "-//W3C//DTD SVG 1.1//EN" "http://www.w3.org/Graphics/SVG/1.1/DTD/svg11.dtd">
<!-- Creator: CorelDRAW 2020 (64-Bit) -->
<svg xmlns="http://www.w3.org/2000/svg" xml:space="preserve" width="200mm" height="200mm" version="1.1" style="shape-rendering:geometricPrecision; text-rendering:geometricPrecision; image-rendering:optimizeQuality; fill-rule:evenodd; clip-rule:evenodd"
viewBox="0 0 20000 20000"
 xmlns:xlink="http://www.w3.org/1999/xlink"
 xmlns:xodm="http://www.corel.com/coreldraw/odm/2003">
 <defs>
  <style type="text/css">
   <![CDATA[
    .fil0 {fill:white}
   ]]>
  </style>
 </defs>
 <g id="Layer_x0020_1">
  <metadata id="CorelCorpID_0Corel-Layer"/>
  <path class="fil0" d="M4194.12 5199.28l989.96 -989.96c116.84,-116.84 307.42,-116.84 424.26,0l4171.93 4171.93c116.84,116.84 307.42,116.84 424.26,0l4171.93 -4171.93c116.84,-116.84 307.42,-116.84 424.26,0l989.96 989.96c116.84,116.84 116.84,307.42 0,424.26l-4171.93 4171.93c-116.84,116.84 -116.84,307.42 0,424.26l4171.93 4171.93c116.84,116.84 116.84,307.42 0,424.26l-989.96 989.96c-116.84,116.84 -307.42,116.84 -424.26,0l-4171.93 -4171.93c-116.84,-116.84 -307.42,-116.84 -424.26,0l-4171.93 4171.93c-116.84,116.84 -307.42,116.84 -424.26,0l-989.96 -989.96c-116.84,-116.84 -116.84,-307.42 0,-424.26l4171.93 -4171.93c116.84,-116.84 116.84,-307.42 0,-424.26l-4171.93 -4171.93c-116.84,-116.84 -116.84,-307.42 0,-424.26z"/>
 </g>
</svg>
