<?xml version="1.0" encoding="UTF-8"?>
<!DOCTYPE svg PUBLIC "-//W3C//DTD SVG 1.1//EN" "http://www.w3.org/Graphics/SVG/1.1/DTD/svg11.dtd">
<!-- Creator: CorelDRAW 2020 (64-Bit) -->
<svg xmlns="http://www.w3.org/2000/svg" xml:space="preserve" width="200mm" height="200mm" version="1.1" style="shape-rendering:geometricPrecision; text-rendering:geometricPrecision; image-rendering:optimizeQuality; fill-rule:evenodd; clip-rule:evenodd"
viewBox="0 0 20000 20000"
 xmlns:xlink="http://www.w3.org/1999/xlink"
 xmlns:xodm="http://www.corel.com/coreldraw/odm/2003">
 <defs>
  <style type="text/css">
   <![CDATA[
    .fil1 {fill:none}
    .fil0 {fill:white}
   ]]>
  </style>
 </defs>
 <g id="Layer_x0020_1">
  <metadata id="CorelCorpID_0Corel-Layer"/>
  <path class="fil0" d="M4009.79 3539.24l7565.22 0c549.99,0 999.99,450.01 999.99,1000l0 1500 -4217.94 0c-671.41,0 -1347.26,623.75 -1347.26,1271.2l0 4228.8 -1637.15 0 -2038.24 1982.6c-51.33,49.92 -130.39,67 -204.19,44.11 -73.78,-22.91 -120.42,-79.01 -120.42,-144.85l0 -2881.86 0 -348.58 0 -5651.42c0,-549.99 450,-1000 999.99,-1000z"/>
  <path class="fil0" d="M15975.01 6439.24l-7565.22 0c-549.99,0 -999.99,450.01 -999.99,1000l0 6000c0,549.99 450,1000 999.99,1000l6202.36 0 2038.24 1982.6c51.33,49.92 130.39,67 204.19,44.11 73.78,-22.91 120.42,-79.01 120.42,-144.85l0 -2881.86 0 -348.58 0 -5651.42c0,-549.99 -450,-1000 -999.99,-1000zm-5782.61 3600c-220.92,0 -400,179.08 -400,400 0,220.92 179.08,400 400,400 220.92,0 400,-179.08 400,-400 0,-220.92 -179.08,-400 -400,-400zm2000 0c-220.92,0 -400,179.08 -400,400 0,220.92 179.08,400 400,400 220.92,0 400,-179.08 400,-400 0,-220.92 -179.08,-400 -400,-400zm2000 0c-220.92,0 -400,179.08 -400,400 0,220.92 179.08,400 400,400 220.92,0 400,-179.08 400,-400 0,-220.92 -179.08,-400 -400,-400z"/>
  <circle class="fil1" cx="9992.4" cy="10007.6" r="10000"/>
 </g>
</svg>
