<?xml version="1.0" encoding="UTF-8"?>
<!DOCTYPE svg PUBLIC "-//W3C//DTD SVG 1.1//EN" "http://www.w3.org/Graphics/SVG/1.1/DTD/svg11.dtd">
<!-- Creator: CorelDRAW 2020 (64-Bit) -->
<svg xmlns="http://www.w3.org/2000/svg" xml:space="preserve" width="200mm" height="75mm" version="1.1" style="shape-rendering:geometricPrecision; text-rendering:geometricPrecision; image-rendering:optimizeQuality; fill-rule:evenodd; clip-rule:evenodd"
viewBox="0 0 20000 7500"
 xmlns:xlink="http://www.w3.org/1999/xlink"
 xmlns:xodm="http://www.corel.com/coreldraw/odm/2003">
 <defs>
  <style type="text/css">
   <![CDATA[
    .fil0 {fill:white}
   ]]>
  </style>
 </defs>
 <g id="Layer_x0020_1">
  <metadata id="CorelCorpID_0Corel-Layer"/>
  <path class="fil0" d="M9472.03 7357.39l-9261.98 -6471.95c-214.96,-150.2 -275.86,-364.15 -159.53,-560.4 116.33,-196.25 375.89,-317.44 679.89,-317.44l862.18 0c202.66,0 377.05,50.48 520.36,150.61l7359.08 5142.27c286.61,200.27 754.13,200.27 1040.74,0l7359.08 -5142.27c143.31,-100.13 317.7,-150.61 520.36,-150.61l862.18 0c304,0 563.56,121.19 679.89,317.44 116.33,196.25 55.43,410.2 -159.53,560.4l-9261.98 6471.95c-286.61,200.27 -754.13,200.27 -1040.74,0z"/>
 </g>
</svg>
