<?xml version="1.0" encoding="UTF-8"?>
<!DOCTYPE svg PUBLIC "-//W3C//DTD SVG 1.1//EN" "http://www.w3.org/Graphics/SVG/1.1/DTD/svg11.dtd">
<!-- Creator: CorelDRAW 2020 (64-Bit) -->
<svg xmlns="http://www.w3.org/2000/svg" xml:space="preserve" width="200mm" height="200mm" version="1.1" style="shape-rendering:geometricPrecision; text-rendering:geometricPrecision; image-rendering:optimizeQuality; fill-rule:evenodd; clip-rule:evenodd"
viewBox="0 0 20000 20000"
 xmlns:xlink="http://www.w3.org/1999/xlink"
 xmlns:xodm="http://www.corel.com/coreldraw/odm/2003">
 <defs>
  <style type="text/css">
   <![CDATA[
    .fil0 {fill:none}
    .fil1 {fill:white}
   ]]>
  </style>
 </defs>
 <g id="Layer_x0020_1">
  <metadata id="CorelCorpID_0Corel-Layer"/>
  <path class="fil0" d="M9992.4 7.6c5522.84,0 10000,4477.15 10000,10000 0,5522.85 -4477.16,10000 -10000,10000 -5522.84,0 -10000,-4477.15 -10000,-10000 0,-5522.85 4477.16,-10000 10000,-10000z"/>
  <path class="fil1" d="M1492.4 9007.6l7000 0c275.39,0 500,-224.61 500,-500l0 -7000c0,-275.39 224.61,-500 500,-500l1000 0c275.39,0 500,224.61 500,500l0 7000c0,275.39 224.61,500 500,500l7000 0c275.39,0 500,224.61 500,500l0 1000c0,275.39 -224.61,500 -500,500l-7000 0c-275.39,0 -500,224.61 -500,500l0 7000c0,275.39 -224.61,500 -500,500l-1000 0c-275.39,0 -500,-224.61 -500,-500l0 -7000c0,-275.39 -224.61,-500 -500,-500l-7000 0c-275.39,0 -500,-224.61 -500,-500l0 -1000c0,-275.39 224.61,-500 500,-500z"/>
 </g>
</svg>
