<?xml version="1.0" encoding="UTF-8"?>
<!DOCTYPE svg PUBLIC "-//W3C//DTD SVG 1.1//EN" "http://www.w3.org/Graphics/SVG/1.1/DTD/svg11.dtd">
<!-- Creator: CorelDRAW 2020 (64-Bit) -->
<svg xmlns="http://www.w3.org/2000/svg" xml:space="preserve" width="200mm" height="200mm" version="1.1" style="shape-rendering:geometricPrecision; text-rendering:geometricPrecision; image-rendering:optimizeQuality; fill-rule:evenodd; clip-rule:evenodd"
viewBox="0 0 20000 20000"
 xmlns:xlink="http://www.w3.org/1999/xlink"
 xmlns:xodm="http://www.corel.com/coreldraw/odm/2003">
 <defs>
  <style type="text/css">
   <![CDATA[
    .fil0 {fill:white}
   ]]>
  </style>
 </defs>
 <g id="Layer_x0020_1">
  <metadata id="CorelCorpID_0Corel-Layer"/>
  <path class="fil0" d="M9992.4 7.6c5522.84,0 10000,4477.15 10000,10000 0,5522.85 -4477.16,10000 -10000,10000 -5522.84,0 -10000,-4477.15 -10000,-10000 0,-5522.85 4477.16,-10000 10000,-10000zm4742.99 9693.24l-4531.03 -2265.51 -4648.18 -2324.1c-109.42,-54.71 -229.63,-49.3 -333.69,15.01 -104.06,64.32 -162.66,169.42 -162.66,291.76l0 333.85c0,28.48 2.89,52.79 9.57,80.48l831.52 3444.62c35.95,148.95 159.75,257.66 312.95,261.88l4584.81 126.41c181.65,5 485.86,160.63 485.86,342.36 0,181.73 -304.24,337.36 -485.86,342.36l-4584.81 126.41c-153.17,4.22 -277,112.93 -312.95,261.88l-831.52 3444.62c-6.68,27.69 -9.57,52 -9.57,80.48l0 333.85c0,122.34 58.6,227.44 162.66,291.76 104.06,64.31 224.27,69.72 333.69,15.01l4648.18 -2324.1 4531.03 -2265.51c119.08,-59.55 189.58,-173.62 189.58,-306.76 0,-133.14 -70.5,-247.21 -189.58,-306.76z"/>
 </g>
</svg>
