<?xml version="1.0" encoding="UTF-8"?>
<!DOCTYPE svg PUBLIC "-//W3C//DTD SVG 1.1//EN" "http://www.w3.org/Graphics/SVG/1.1/DTD/svg11.dtd">
<!-- Creator: CorelDRAW 2020 (64-Bit) -->
<svg xmlns="http://www.w3.org/2000/svg" xml:space="preserve" width="200mm" height="200mm" version="1.1" style="shape-rendering:geometricPrecision; text-rendering:geometricPrecision; image-rendering:optimizeQuality; fill-rule:evenodd; clip-rule:evenodd"
viewBox="0 0 20000 20000"
 xmlns:xlink="http://www.w3.org/1999/xlink"
 xmlns:xodm="http://www.corel.com/coreldraw/odm/2003">
 <defs>
  <style type="text/css">
   <![CDATA[
    .fil0 {fill:none}
    .fil1 {fill:white}
   ]]>
  </style>
 </defs>
 <g id="Layer_x0020_1">
  <metadata id="CorelCorpID_0Corel-Layer"/>
  <path class="fil0" d="M9992.4 7.6c5522.84,0 10000,4477.15 10000,10000 0,5522.85 -4477.16,10000 -10000,10000 -5522.84,0 -10000,-4477.15 -10000,-10000 0,-5522.85 4477.16,-10000 10000,-10000z"/>
  <path class="fil1" d="M19007.06 9536.82l-6953.79 -3476.9 -7133.6 -3566.81c-167.92,-83.96 -352.41,-75.66 -512.11,23.04 -159.71,98.71 -249.64,260.01 -249.64,447.76l0 512.36c0,43.71 4.44,81.02 14.69,123.51l1276.14 5286.49c55.18,228.59 245.17,395.43 480.28,401.9l7036.34 194.01c278.79,7.67 745.65,246.52 745.65,525.42 0,278.9 -466.92,517.75 -745.65,525.42l-7036.34 194.01c-235.07,6.47 -425.11,173.31 -480.28,401.9l-1276.14 5286.49c-10.25,42.49 -14.69,79.8 -14.69,123.51l0 512.36c0,187.75 89.93,349.05 249.64,447.76 159.7,98.7 344.19,107 512.11,23.04l7133.6 -3566.81 6953.79 -3476.9c182.76,-91.38 290.96,-266.45 290.96,-470.78 0,-204.33 -108.2,-379.4 -290.96,-470.78z"/>
 </g>
</svg>
