<?xml version="1.0" encoding="UTF-8"?>
<!DOCTYPE svg PUBLIC "-//W3C//DTD SVG 1.1//EN" "http://www.w3.org/Graphics/SVG/1.1/DTD/svg11.dtd">
<!-- Creator: CorelDRAW 2020 (64-Bit) -->
<svg xmlns="http://www.w3.org/2000/svg" xml:space="preserve" width="200mm" height="200mm" version="1.1" style="shape-rendering:geometricPrecision; text-rendering:geometricPrecision; image-rendering:optimizeQuality; fill-rule:evenodd; clip-rule:evenodd"
viewBox="0 0 20000 20000"
 xmlns:xlink="http://www.w3.org/1999/xlink"
 xmlns:xodm="http://www.corel.com/coreldraw/odm/2003">
 <defs>
  <style type="text/css">
   <![CDATA[
    .fil0 {fill:white}
   ]]>
  </style>
 </defs>
 <g id="Layer_x0020_1">
  <metadata id="CorelCorpID_0Corel-Layer"/>
  <path class="fil0" d="M9992.4 7.6c5522.84,0 10000,4477.15 10000,10000 0,5522.85 -4477.16,10000 -10000,10000 -5522.84,0 -10000,-4477.15 -10000,-10000 0,-5522.85 4477.16,-10000 10000,-10000zm4172.57 2198.84c2869.6,1504.24 4827.43,4511.49 4827.43,7976.16 0,4970.56 -4029.44,9000 -9000,9000 -4970.56,0 -9000,-4029.44 -9000,-9000 0,-3464.67 1957.84,-6471.93 4827.44,-7976.16 467.77,-245.2 1043.22,-85.73 1318.14,365.21l261.22 428.47c149.68,245.51 186.66,512.82 109.25,789.74 -77.41,276.94 -247.64,486.32 -502.94,618.63 -2086.96,1081.65 -3513.11,3261.19 -3513.11,5774.11 0,3589.85 2910.15,6500 6500,6500 3589.85,0 6500,-2910.15 6500,-6500 0,-2512.92 -1426.15,-4692.46 -3513.11,-5774.11 -255.29,-132.31 -425.53,-341.7 -502.94,-618.63 -77.4,-276.92 -40.43,-544.23 109.25,-789.74l261.23 -428.48c274.9,-450.91 850.41,-610.39 1318.14,-365.2zm-4172.58 -1373.84l0.02 0c825,0 1499.99,674.98 1499.99,1499.99l0 8500.02c0,825 -674.99,1499.99 -1499.99,1499.99l-0.02 0c-825,0 -1499.99,-674.99 -1499.99,-1499.99l0 -8500.02c0,-825.01 674.99,-1499.99 1499.99,-1499.99z"/>
 </g>
</svg>
