<?xml version="1.0" encoding="UTF-8"?>
<!DOCTYPE svg PUBLIC "-//W3C//DTD SVG 1.1//EN" "http://www.w3.org/Graphics/SVG/1.1/DTD/svg11.dtd">
<!-- Creator: CorelDRAW 2020 (64-Bit) -->
<svg xmlns="http://www.w3.org/2000/svg" xml:space="preserve" width="200mm" height="200mm" version="1.1" style="shape-rendering:geometricPrecision; text-rendering:geometricPrecision; image-rendering:optimizeQuality; fill-rule:evenodd; clip-rule:evenodd"
viewBox="0 0 20000 20000"
 xmlns:xlink="http://www.w3.org/1999/xlink"
 xmlns:xodm="http://www.corel.com/coreldraw/odm/2003">
 <defs>
  <style type="text/css">
   <![CDATA[
    .fil1 {fill:none}
    .fil0 {fill:white}
   ]]>
  </style>
 </defs>
 <g id="Layer_x0020_1">
  <metadata id="CorelCorpID_0Corel-Layer"/>
  <g id="_3092620608560">
   <path class="fil0" d="M9992.4 2621.6c1483.35,0 2685.82,1202.47 2685.82,2685.82 0,1483.35 -1202.47,2685.82 -2685.82,2685.82 -1483.35,0 -2685.82,-1202.47 -2685.82,-2685.82 0,-1483.35 1202.47,-2685.82 2685.82,-2685.82zm0 1342.91c741.69,0 1342.91,601.22 1342.91,1342.91 0,741.69 -601.22,1342.91 -1342.91,1342.91 -741.69,0 -1342.91,-601.22 -1342.91,-1342.91 0,-741.69 601.22,-1342.91 1342.91,-1342.91z"/>
   <path class="fil0" d="M7306.58 9336.15l5371.64 0c2215.8,0 4028.73,1812.9 4028.73,4028.7l0 4028.75 -1342.91 0 0 -4028.75c0,-1477.23 -1208.6,-2685.8 -2685.79,-2685.8l-5371.7 0c-1477.19,0 -2685.79,1208.57 -2685.79,2685.8l0 4028.75 -1342.91 0 0 -4028.75c0,-2215.8 1812.93,-4028.7 4028.73,-4028.7z"/>
  </g>
  <path class="fil1" d="M9992.4 7.6c5522.84,0 10000,4477.15 10000,10000 0,5522.85 -4477.16,10000 -10000,10000 -5522.84,0 -10000,-4477.15 -10000,-10000 0,-5522.85 4477.16,-10000 10000,-10000z"/>
 </g>
</svg>
